<svg width="20" height="20" viewBox="0 0 20 20" fill="none" xmlns="http://www.w3.org/2000/svg">
<path d="M2.8453 4.99996L4.75605 3.08922L3.57753 1.91071L0.488281 4.99996L3.57753 8.08922L4.75605 6.91071L2.8453 4.99996ZM7.98828 4.99996L6.07753 3.08922L7.25605 1.91071L10.3453 4.99996L7.25605 8.08922L6.07753 6.91071L7.98828 4.99996ZM11.6668 2.49996H17.5002C17.9603 2.49996 18.3335 2.87306 18.3335 3.33329V16.6667C18.3335 17.1268 17.9603 17.5 17.5002 17.5H2.50012C2.03989 17.5 1.66679 17.1268 1.66679 16.6667V10H3.33346V15.8333H16.6668V4.16663H11.6668V2.49996Z" fill="#636C76"/>
</svg>
